<mxfile host="Electron" agent="Mozilla/5.0 (Windows NT 10.0; Win64; x64) AppleWebKit/537.36 (KHTML, like Gecko) draw.io/25.0.2 Chrome/128.0.6613.186 Electron/32.2.5 Safari/537.36" version="25.0.2">
  <diagram id="C5RBs43oDa-KdzZeNtuy" name="Page-1">
    <mxGraphModel dx="1434" dy="886" grid="1" gridSize="10" guides="1" tooltips="1" connect="1" arrows="1" fold="1" page="1" pageScale="1" pageWidth="827" pageHeight="1169" math="0" shadow="0">
      <root>
        <mxCell id="WIyWlLk6GJQsqaUBKTNV-0" />
        <mxCell id="WIyWlLk6GJQsqaUBKTNV-1" parent="WIyWlLk6GJQsqaUBKTNV-0" />
        <mxCell id="EWIUmsc5OoB3DRQVQ0g7-18" value="Client" style="verticalAlign=top;align=left;spacingTop=8;spacingLeft=2;spacingRight=12;shape=cube;size=10;direction=south;fontStyle=4;html=1;whiteSpace=wrap;" vertex="1" parent="WIyWlLk6GJQsqaUBKTNV-1">
          <mxGeometry x="144" y="40" width="540" height="390" as="geometry" />
        </mxCell>
        <mxCell id="EWIUmsc5OoB3DRQVQ0g7-2" value="BigliettoFacade" style="swimlane;fontStyle=1;align=center;verticalAlign=top;childLayout=stackLayout;horizontal=1;startSize=26;horizontalStack=0;resizeParent=1;resizeParentMax=0;resizeLast=0;collapsible=1;marginBottom=0;whiteSpace=wrap;html=1;" vertex="1" parent="WIyWlLk6GJQsqaUBKTNV-1">
          <mxGeometry x="334" y="540" width="160" height="90" as="geometry" />
        </mxCell>
        <mxCell id="EWIUmsc5OoB3DRQVQ0g7-4" value="" style="line;strokeWidth=1;fillColor=none;align=left;verticalAlign=middle;spacingTop=-1;spacingLeft=3;spacingRight=3;rotatable=0;labelPosition=right;points=[];portConstraint=eastwest;strokeColor=inherit;" vertex="1" parent="EWIUmsc5OoB3DRQVQ0g7-2">
          <mxGeometry y="26" width="160" height="8" as="geometry" />
        </mxCell>
        <mxCell id="EWIUmsc5OoB3DRQVQ0g7-5" value="+ creaBiglietto():&lt;div&gt;+ cancellaBiglietto():&lt;/div&gt;&lt;div&gt;+ verificaDisponibilita():&lt;/div&gt;" style="text;strokeColor=none;fillColor=none;align=left;verticalAlign=top;spacingLeft=4;spacingRight=4;overflow=hidden;rotatable=0;points=[[0,0.5],[1,0.5]];portConstraint=eastwest;whiteSpace=wrap;html=1;" vertex="1" parent="EWIUmsc5OoB3DRQVQ0g7-2">
          <mxGeometry y="34" width="160" height="56" as="geometry" />
        </mxCell>
        <mxCell id="EWIUmsc5OoB3DRQVQ0g7-6" value="Persona" style="swimlane;fontStyle=1;align=center;verticalAlign=top;childLayout=stackLayout;horizontal=1;startSize=26;horizontalStack=0;resizeParent=1;resizeParentMax=0;resizeLast=0;collapsible=1;marginBottom=0;whiteSpace=wrap;html=1;rounded=1;" vertex="1" parent="WIyWlLk6GJQsqaUBKTNV-1">
          <mxGeometry x="338" y="70" width="160" height="100" as="geometry" />
        </mxCell>
        <mxCell id="EWIUmsc5OoB3DRQVQ0g7-7" value="&lt;div&gt;CF:Stringa&lt;/div&gt;&lt;div&gt;Nome:String&lt;/div&gt;&lt;div&gt;Cognome:String&lt;br&gt;&lt;/div&gt;&lt;div&gt;email: String&lt;/div&gt;" style="text;strokeColor=none;fillColor=none;align=left;verticalAlign=top;spacingLeft=4;spacingRight=4;overflow=hidden;rotatable=0;points=[[0,0.5],[1,0.5]];portConstraint=eastwest;whiteSpace=wrap;html=1;" vertex="1" parent="EWIUmsc5OoB3DRQVQ0g7-6">
          <mxGeometry y="26" width="160" height="74" as="geometry" />
        </mxCell>
        <mxCell id="EWIUmsc5OoB3DRQVQ0g7-8" value="" style="endArrow=open;html=1;endSize=12;startArrow=diamondThin;startSize=14;startFill=1;edgeStyle=orthogonalEdgeStyle;align=left;verticalAlign=bottom;rounded=1;" edge="1" parent="WIyWlLk6GJQsqaUBKTNV-1" source="EWIUmsc5OoB3DRQVQ0g7-6" target="EWIUmsc5OoB3DRQVQ0g7-10">
          <mxGeometry x="-1" y="3" relative="1" as="geometry">
            <mxPoint x="277.83000000000004" y="-238.784" as="sourcePoint" />
            <mxPoint x="398" y="53" as="targetPoint" />
            <Array as="points">
              <mxPoint x="568" y="115" />
            </Array>
            <mxPoint as="offset" />
          </mxGeometry>
        </mxCell>
        <mxCell id="EWIUmsc5OoB3DRQVQ0g7-9" value="" style="endArrow=open;html=1;endSize=12;startArrow=diamondThin;startSize=14;startFill=1;edgeStyle=orthogonalEdgeStyle;align=left;verticalAlign=bottom;rounded=1;entryX=0.5;entryY=0;entryDx=0;entryDy=0;" edge="1" parent="WIyWlLk6GJQsqaUBKTNV-1" source="EWIUmsc5OoB3DRQVQ0g7-6" target="EWIUmsc5OoB3DRQVQ0g7-14">
          <mxGeometry x="-1" y="3" relative="1" as="geometry">
            <mxPoint x="698" y="-110" as="sourcePoint" />
            <mxPoint x="158" y="53" as="targetPoint" />
            <Array as="points">
              <mxPoint x="248" y="115" />
            </Array>
          </mxGeometry>
        </mxCell>
        <mxCell id="EWIUmsc5OoB3DRQVQ0g7-10" value="Staff" style="swimlane;fontStyle=1;align=center;verticalAlign=top;childLayout=stackLayout;horizontal=1;startSize=26;horizontalStack=0;resizeParent=1;resizeParentMax=0;resizeLast=0;collapsible=1;marginBottom=0;whiteSpace=wrap;html=1;rounded=1;" vertex="1" parent="WIyWlLk6GJQsqaUBKTNV-1">
          <mxGeometry x="468" y="290" width="200" height="110" as="geometry" />
        </mxCell>
        <mxCell id="EWIUmsc5OoB3DRQVQ0g7-11" value="&lt;div&gt;numeroMassimoBiglietti: int&lt;/div&gt;&lt;div&gt;password: String&lt;/div&gt;" style="text;strokeColor=none;fillColor=none;align=left;verticalAlign=top;spacingLeft=4;spacingRight=4;overflow=hidden;rotatable=0;points=[[0,0.5],[1,0.5]];portConstraint=eastwest;whiteSpace=wrap;html=1;" vertex="1" parent="EWIUmsc5OoB3DRQVQ0g7-10">
          <mxGeometry y="26" width="200" height="34" as="geometry" />
        </mxCell>
        <mxCell id="EWIUmsc5OoB3DRQVQ0g7-12" value="" style="line;strokeWidth=1;fillColor=none;align=left;verticalAlign=middle;spacingTop=-1;spacingLeft=3;spacingRight=3;rotatable=0;labelPosition=right;points=[];portConstraint=eastwest;strokeColor=inherit;rounded=1;" vertex="1" parent="EWIUmsc5OoB3DRQVQ0g7-10">
          <mxGeometry y="60" width="200" height="8" as="geometry" />
        </mxCell>
        <mxCell id="EWIUmsc5OoB3DRQVQ0g7-13" value="&lt;div&gt;apriBanco();&lt;div&gt;aggiungiBiglietto();&lt;/div&gt;&lt;/div&gt;" style="text;strokeColor=none;fillColor=none;align=left;verticalAlign=top;spacingLeft=4;spacingRight=4;overflow=hidden;rotatable=0;points=[[0,0.5],[1,0.5]];portConstraint=eastwest;whiteSpace=wrap;html=1;" vertex="1" parent="EWIUmsc5OoB3DRQVQ0g7-10">
          <mxGeometry y="68" width="200" height="42" as="geometry" />
        </mxCell>
        <mxCell id="EWIUmsc5OoB3DRQVQ0g7-14" value="Organizzatore" style="swimlane;fontStyle=1;align=center;verticalAlign=top;childLayout=stackLayout;horizontal=1;startSize=26;horizontalStack=0;resizeParent=1;resizeParentMax=0;resizeLast=0;collapsible=1;marginBottom=0;whiteSpace=wrap;html=1;rounded=1;" vertex="1" parent="WIyWlLk6GJQsqaUBKTNV-1">
          <mxGeometry x="148" y="290" width="200" height="110" as="geometry" />
        </mxCell>
        <mxCell id="EWIUmsc5OoB3DRQVQ0g7-15" value="&lt;div&gt;&lt;span style=&quot;background-color: initial;&quot;&gt;password: String&lt;/span&gt;&lt;/div&gt;" style="text;strokeColor=none;fillColor=none;align=left;verticalAlign=top;spacingLeft=4;spacingRight=4;overflow=hidden;rotatable=0;points=[[0,0.5],[1,0.5]];portConstraint=eastwest;whiteSpace=wrap;html=1;" vertex="1" parent="EWIUmsc5OoB3DRQVQ0g7-14">
          <mxGeometry y="26" width="200" height="24" as="geometry" />
        </mxCell>
        <mxCell id="EWIUmsc5OoB3DRQVQ0g7-16" value="" style="line;strokeWidth=1;fillColor=none;align=left;verticalAlign=middle;spacingTop=-1;spacingLeft=3;spacingRight=3;rotatable=0;labelPosition=right;points=[];portConstraint=eastwest;strokeColor=inherit;rounded=1;" vertex="1" parent="EWIUmsc5OoB3DRQVQ0g7-14">
          <mxGeometry y="50" width="200" height="8" as="geometry" />
        </mxCell>
        <mxCell id="EWIUmsc5OoB3DRQVQ0g7-17" value="creaEvento()&lt;div&gt;aggiungiBigietto():&lt;/div&gt;&lt;div&gt;aggiungiStaff():&lt;/div&gt;&lt;div&gt;&lt;br&gt;&lt;/div&gt;" style="text;strokeColor=none;fillColor=none;align=left;verticalAlign=top;spacingLeft=4;spacingRight=4;overflow=hidden;rotatable=0;points=[[0,0.5],[1,0.5]];portConstraint=eastwest;whiteSpace=wrap;html=1;" vertex="1" parent="EWIUmsc5OoB3DRQVQ0g7-14">
          <mxGeometry y="58" width="200" height="52" as="geometry" />
        </mxCell>
        <mxCell id="EWIUmsc5OoB3DRQVQ0g7-19" value="interagiscono" style="endArrow=block;endFill=1;html=1;edgeStyle=orthogonalEdgeStyle;align=right;verticalAlign=top;rounded=0;fontSize=12;startSize=8;endSize=8;curved=1;horizontal=0;" edge="1" parent="WIyWlLk6GJQsqaUBKTNV-1" source="EWIUmsc5OoB3DRQVQ0g7-18" target="EWIUmsc5OoB3DRQVQ0g7-2">
          <mxGeometry x="-0.8182" y="-24" relative="1" as="geometry">
            <mxPoint x="330" y="410" as="sourcePoint" />
            <mxPoint x="490" y="410" as="targetPoint" />
            <mxPoint as="offset" />
          </mxGeometry>
        </mxCell>
        <mxCell id="EWIUmsc5OoB3DRQVQ0g7-21" value="BigliettoManager" style="swimlane;fontStyle=1;align=center;verticalAlign=top;childLayout=stackLayout;horizontal=1;startSize=26;horizontalStack=0;resizeParent=1;resizeParentMax=0;resizeLast=0;collapsible=1;marginBottom=0;whiteSpace=wrap;html=1;" vertex="1" parent="WIyWlLk6GJQsqaUBKTNV-1">
          <mxGeometry x="144" y="710" width="160" height="100" as="geometry" />
        </mxCell>
        <mxCell id="EWIUmsc5OoB3DRQVQ0g7-22" value="- biglietti: List" style="text;strokeColor=none;fillColor=none;align=left;verticalAlign=top;spacingLeft=4;spacingRight=4;overflow=hidden;rotatable=0;points=[[0,0.5],[1,0.5]];portConstraint=eastwest;whiteSpace=wrap;html=1;" vertex="1" parent="EWIUmsc5OoB3DRQVQ0g7-21">
          <mxGeometry y="26" width="160" height="26" as="geometry" />
        </mxCell>
        <mxCell id="EWIUmsc5OoB3DRQVQ0g7-23" value="" style="line;strokeWidth=1;fillColor=none;align=left;verticalAlign=middle;spacingTop=-1;spacingLeft=3;spacingRight=3;rotatable=0;labelPosition=right;points=[];portConstraint=eastwest;strokeColor=inherit;" vertex="1" parent="EWIUmsc5OoB3DRQVQ0g7-21">
          <mxGeometry y="52" width="160" height="8" as="geometry" />
        </mxCell>
        <mxCell id="EWIUmsc5OoB3DRQVQ0g7-24" value="+ aggiungi():&lt;div&gt;+ rimuovi():&lt;/div&gt;" style="text;strokeColor=none;fillColor=none;align=left;verticalAlign=top;spacingLeft=4;spacingRight=4;overflow=hidden;rotatable=0;points=[[0,0.5],[1,0.5]];portConstraint=eastwest;whiteSpace=wrap;html=1;" vertex="1" parent="EWIUmsc5OoB3DRQVQ0g7-21">
          <mxGeometry y="60" width="160" height="40" as="geometry" />
        </mxCell>
        <mxCell id="EWIUmsc5OoB3DRQVQ0g7-25" value="DisponibilitaBiglietto" style="swimlane;fontStyle=1;align=center;verticalAlign=top;childLayout=stackLayout;horizontal=1;startSize=26;horizontalStack=0;resizeParent=1;resizeParentMax=0;resizeLast=0;collapsible=1;marginBottom=0;whiteSpace=wrap;html=1;" vertex="1" parent="WIyWlLk6GJQsqaUBKTNV-1">
          <mxGeometry x="334" y="710" width="160" height="74" as="geometry" />
        </mxCell>
        <mxCell id="EWIUmsc5OoB3DRQVQ0g7-27" value="" style="line;strokeWidth=1;fillColor=none;align=left;verticalAlign=middle;spacingTop=-1;spacingLeft=3;spacingRight=3;rotatable=0;labelPosition=right;points=[];portConstraint=eastwest;strokeColor=inherit;" vertex="1" parent="EWIUmsc5OoB3DRQVQ0g7-25">
          <mxGeometry y="26" width="160" height="8" as="geometry" />
        </mxCell>
        <mxCell id="EWIUmsc5OoB3DRQVQ0g7-28" value="+ isDisponibile()" style="text;strokeColor=none;fillColor=none;align=left;verticalAlign=top;spacingLeft=4;spacingRight=4;overflow=hidden;rotatable=0;points=[[0,0.5],[1,0.5]];portConstraint=eastwest;whiteSpace=wrap;html=1;" vertex="1" parent="EWIUmsc5OoB3DRQVQ0g7-25">
          <mxGeometry y="34" width="160" height="40" as="geometry" />
        </mxCell>
        <mxCell id="EWIUmsc5OoB3DRQVQ0g7-29" value="EmailManager" style="swimlane;fontStyle=1;align=center;verticalAlign=top;childLayout=stackLayout;horizontal=1;startSize=26;horizontalStack=0;resizeParent=1;resizeParentMax=0;resizeLast=0;collapsible=1;marginBottom=0;whiteSpace=wrap;html=1;" vertex="1" parent="WIyWlLk6GJQsqaUBKTNV-1">
          <mxGeometry x="524" y="710" width="160" height="74" as="geometry" />
        </mxCell>
        <mxCell id="EWIUmsc5OoB3DRQVQ0g7-30" value="" style="line;strokeWidth=1;fillColor=none;align=left;verticalAlign=middle;spacingTop=-1;spacingLeft=3;spacingRight=3;rotatable=0;labelPosition=right;points=[];portConstraint=eastwest;strokeColor=inherit;" vertex="1" parent="EWIUmsc5OoB3DRQVQ0g7-29">
          <mxGeometry y="26" width="160" height="8" as="geometry" />
        </mxCell>
        <mxCell id="EWIUmsc5OoB3DRQVQ0g7-31" value="+ inviaEmail():" style="text;strokeColor=none;fillColor=none;align=left;verticalAlign=top;spacingLeft=4;spacingRight=4;overflow=hidden;rotatable=0;points=[[0,0.5],[1,0.5]];portConstraint=eastwest;whiteSpace=wrap;html=1;" vertex="1" parent="EWIUmsc5OoB3DRQVQ0g7-29">
          <mxGeometry y="34" width="160" height="40" as="geometry" />
        </mxCell>
        <mxCell id="EWIUmsc5OoB3DRQVQ0g7-32" value="" style="endArrow=open;endFill=1;endSize=12;html=1;rounded=0;fontSize=12;curved=1;" edge="1" parent="WIyWlLk6GJQsqaUBKTNV-1" source="EWIUmsc5OoB3DRQVQ0g7-2" target="EWIUmsc5OoB3DRQVQ0g7-21">
          <mxGeometry width="160" relative="1" as="geometry">
            <mxPoint x="330" y="580" as="sourcePoint" />
            <mxPoint x="490" y="580" as="targetPoint" />
          </mxGeometry>
        </mxCell>
        <mxCell id="EWIUmsc5OoB3DRQVQ0g7-33" value="" style="endArrow=open;endFill=1;endSize=12;html=1;rounded=0;fontSize=12;curved=1;" edge="1" parent="WIyWlLk6GJQsqaUBKTNV-1" source="EWIUmsc5OoB3DRQVQ0g7-2" target="EWIUmsc5OoB3DRQVQ0g7-25">
          <mxGeometry width="160" relative="1" as="geometry">
            <mxPoint x="330" y="580" as="sourcePoint" />
            <mxPoint x="490" y="580" as="targetPoint" />
          </mxGeometry>
        </mxCell>
        <mxCell id="EWIUmsc5OoB3DRQVQ0g7-34" value="" style="endArrow=open;endFill=1;endSize=12;html=1;rounded=0;fontSize=12;curved=1;" edge="1" parent="WIyWlLk6GJQsqaUBKTNV-1" source="EWIUmsc5OoB3DRQVQ0g7-2" target="EWIUmsc5OoB3DRQVQ0g7-29">
          <mxGeometry width="160" relative="1" as="geometry">
            <mxPoint x="330" y="580" as="sourcePoint" />
            <mxPoint x="490" y="580" as="targetPoint" />
          </mxGeometry>
        </mxCell>
      </root>
    </mxGraphModel>
  </diagram>
</mxfile>
